<svg width="1616" height="465" viewBox="0 0 1616 465" fill="none" xmlns="http://www.w3.org/2000/svg">
<path d="M703.28 150.36C697.64 156.84 690.68 162 682.4 165.84C674.12 169.56 664.58 171.42 653.78 171.42C643.94 171.42 634.82 169.8 626.42 166.56C618.14 163.32 610.94 158.76 604.82 152.88C598.7 146.88 593.9 139.74 590.42 131.46C586.94 123.18 585.2 114.06 585.2 104.1C585.2 93.9 586.94 84.66 590.42 76.38C594.02 68.1 598.94 61.08 605.18 55.32C611.42 49.44 618.74 44.94 627.14 41.82C635.54 38.7 644.6 37.14 654.32 37.14C663.32 37.14 672.14 38.76 680.78 42C689.54 45.12 696.62 49.74 702.02 55.86L681.14 76.74C678.26 72.78 674.48 69.84 669.8 67.92C665.12 66 660.32 65.04 655.4 65.04C650 65.04 645.02 66.06 640.46 68.1C636.02 70.02 632.18 72.72 628.94 76.2C625.7 79.68 623.18 83.82 621.38 88.62C619.58 93.3 618.68 98.46 618.68 104.1C618.68 109.86 619.58 115.14 621.38 119.94C623.18 124.74 625.64 128.88 628.76 132.36C632 135.72 635.84 138.36 640.28 140.28C644.72 142.2 649.58 143.16 654.86 143.16C660.98 143.16 666.32 141.96 670.88 139.56C675.44 137.16 679.1 134.04 681.86 130.2L703.28 150.36ZM896.703 103.74C896.703 113.82 894.963 123.06 891.483 131.46C888.003 139.74 883.143 146.88 876.903 152.88C870.783 158.76 863.463 163.32 854.943 166.56C846.423 169.8 837.183 171.42 827.223 171.42C817.263 171.42 808.023 169.8 799.503 166.56C791.103 163.32 783.783 158.76 777.543 152.88C771.423 146.88 766.623 139.74 763.143 131.46C759.663 123.06 757.923 113.82 757.923 103.74C757.923 93.54 759.663 84.36 763.143 76.2C766.623 67.92 771.423 60.9 777.543 55.14C783.783 49.38 791.103 44.94 799.503 41.82C808.023 38.7 817.263 37.14 827.223 37.14C837.183 37.14 846.423 38.7 854.943 41.82C863.463 44.94 870.783 49.38 876.903 55.14C883.143 60.9 888.003 67.92 891.483 76.2C894.963 84.36 896.703 93.54 896.703 103.74ZM863.763 103.74C863.763 98.22 862.863 93.06 861.063 88.26C859.263 83.46 856.743 79.38 853.503 76.02C850.383 72.54 846.543 69.84 841.983 67.92C837.543 65.88 832.623 64.86 827.223 64.86C821.823 64.86 816.903 65.88 812.463 67.92C808.023 69.84 804.183 72.54 800.943 76.02C797.703 79.38 795.183 83.46 793.383 88.26C791.703 93.06 790.863 98.22 790.863 103.74C790.863 109.5 791.763 114.84 793.563 119.76C795.363 124.56 797.823 128.7 800.943 132.18C804.183 135.66 808.023 138.42 812.463 140.46C816.903 142.38 821.823 143.34 827.223 143.34C832.623 143.34 837.543 142.38 841.983 140.46C846.423 138.42 850.263 135.66 853.503 132.18C856.743 128.7 859.263 124.56 861.063 119.76C862.863 114.84 863.763 109.5 863.763 103.74ZM966.468 168V40.56H997.428V141.18H1046.75V168H966.468ZM1238.11 103.74C1238.11 113.82 1236.37 123.06 1232.89 131.46C1229.41 139.74 1224.55 146.88 1218.31 152.88C1212.19 158.76 1204.87 163.32 1196.35 166.56C1187.83 169.8 1178.59 171.42 1168.63 171.42C1158.67 171.42 1149.43 169.8 1140.91 166.56C1132.51 163.32 1125.19 158.76 1118.95 152.88C1112.83 146.88 1108.03 139.74 1104.55 131.46C1101.07 123.06 1099.33 113.82 1099.33 103.74C1099.33 93.54 1101.07 84.36 1104.55 76.2C1108.03 67.92 1112.83 60.9 1118.95 55.14C1125.19 49.38 1132.51 44.94 1140.91 41.82C1149.43 38.7 1158.67 37.14 1168.63 37.14C1178.59 37.14 1187.83 38.7 1196.35 41.82C1204.87 44.94 1212.19 49.38 1218.31 55.14C1224.55 60.9 1229.41 67.92 1232.89 76.2C1236.37 84.36 1238.11 93.54 1238.11 103.74ZM1205.17 103.74C1205.17 98.22 1204.27 93.06 1202.47 88.26C1200.67 83.46 1198.15 79.38 1194.91 76.02C1191.79 72.54 1187.95 69.84 1183.39 67.92C1178.95 65.88 1174.03 64.86 1168.63 64.86C1163.23 64.86 1158.31 65.88 1153.87 67.92C1149.43 69.84 1145.59 72.54 1142.35 76.02C1139.11 79.38 1136.59 83.46 1134.79 88.26C1133.11 93.06 1132.27 98.22 1132.27 103.74C1132.27 109.5 1133.17 114.84 1134.97 119.76C1136.77 124.56 1139.23 128.7 1142.35 132.18C1145.59 135.66 1149.43 138.42 1153.87 140.46C1158.31 142.38 1163.23 143.34 1168.63 143.34C1174.03 143.34 1178.95 142.38 1183.39 140.46C1187.83 138.42 1191.67 135.66 1194.91 132.18C1198.15 128.7 1200.67 124.56 1202.47 119.76C1204.27 114.84 1205.17 109.5 1205.17 103.74ZM1388.87 168L1337.57 84.66H1337.03L1337.75 168H1307.87V40.56H1342.97L1394.09 123.72H1394.63L1393.91 40.56H1423.79V168H1388.87ZM1561.5 114V168H1530.72V114L1482.84 40.56H1520.1L1547.28 87.72L1574.46 40.56H1610.46L1561.5 114ZM660.8 370.44C660.8 375.48 660.2 380.76 659 386.28C657.92 391.8 655.82 396.9 652.7 401.58C649.7 406.14 645.44 409.92 639.92 412.92C634.52 415.92 627.5 417.42 618.86 417.42C608.06 417.42 599.06 414.66 591.86 409.14C584.66 403.5 579.86 396.3 577.46 387.54L604.64 378.36C605.48 381.72 606.98 384.42 609.14 386.46C611.42 388.5 614.18 389.52 617.42 389.52C622.46 389.52 625.76 387.78 627.32 384.3C629 380.82 629.84 376.26 629.84 370.62V286.56H660.8V370.44ZM803.233 319.68C800.593 316.32 797.113 313.68 792.793 311.76C788.593 309.72 784.513 308.7 780.553 308.7C778.513 308.7 776.413 308.88 774.253 309.24C772.213 309.6 770.353 310.32 768.673 311.4C766.993 312.36 765.553 313.68 764.353 315.36C763.273 316.92 762.733 318.96 762.733 321.48C762.733 323.64 763.153 325.44 763.993 326.88C764.953 328.32 766.273 329.58 767.953 330.66C769.753 331.74 771.853 332.76 774.253 333.72C776.653 334.56 779.353 335.46 782.353 336.42C786.673 337.86 791.173 339.48 795.853 341.28C800.533 342.96 804.793 345.24 808.633 348.12C812.473 351 815.653 354.6 818.173 358.92C820.693 363.12 821.953 368.4 821.953 374.76C821.953 382.08 820.573 388.44 817.813 393.84C815.173 399.12 811.573 403.5 807.013 406.98C802.453 410.46 797.233 413.04 791.353 414.72C785.473 416.4 779.413 417.24 773.173 417.24C764.053 417.24 755.233 415.68 746.713 412.56C738.193 409.32 731.113 404.76 725.473 398.88L745.633 378.36C748.753 382.2 752.833 385.44 757.873 388.08C763.033 390.6 768.133 391.86 773.173 391.86C775.453 391.86 777.673 391.62 779.833 391.14C781.993 390.66 783.853 389.88 785.413 388.8C787.093 387.72 788.413 386.28 789.373 384.48C790.333 382.68 790.813 380.52 790.813 378C790.813 375.6 790.213 373.56 789.013 371.88C787.813 370.2 786.073 368.7 783.793 367.38C781.633 365.94 778.873 364.68 775.513 363.6C772.273 362.4 768.553 361.14 764.353 359.82C760.273 358.5 756.253 356.94 752.293 355.14C748.453 353.34 744.973 351.06 741.853 348.3C738.853 345.42 736.393 342 734.473 338.04C732.673 333.96 731.773 329.04 731.773 323.28C731.773 316.2 733.213 310.14 736.093 305.1C738.973 300.06 742.753 295.92 747.433 292.68C752.113 289.44 757.393 287.1 763.273 285.66C769.153 284.1 775.093 283.32 781.093 283.32C788.293 283.32 795.613 284.64 803.053 287.28C810.613 289.92 817.213 293.82 822.853 298.98L803.233 319.68Z" fill="#F5416E"/>
<rect y="110.264" width="155.937" height="155.937" transform="rotate(-45 0 110.264)" fill="#F5416E"/>
<rect x="245.17" y="353.996" width="155.937" height="155.937" transform="rotate(-45 245.17 353.996)" fill="#F5416E"/>
<rect x="31" y="276.914" width="158" height="157" fill="#F5416E"/>
<ellipse cx="357" cy="96.4141" rx="95" ry="95.5" fill="#F5416E"/>
</svg>
